<?xml version="1.0" encoding="UTF-8"?>
<svg width="54px" height="54px" viewBox="0 0 54 54" version="1.1" xmlns="http://www.w3.org/2000/svg" xmlns:xlink="http://www.w3.org/1999/xlink">
<path fill="#ff785d" d="M28.1598012,40.3470941 C27.7435572,40.5509686 27.2564428,40.5509686 26.8401988,40.3470941 C26.2609553,40.063383 25.3633807,39.4353424 24.2628302,38.3572522 C22.5049077,36.6352056 20.7681248,34.2533319 19.1639722,31.1105023 C17.5832171,28.0135127 16.5590526,25.3381441 15.9840848,23.0852094 C15.6252677,21.6792319 15.5,20.6975424 15.5,20.1428571 C15.5,19.31443 16.1715729,18.6428571 17,18.6428571 C19.7226851,18.6428571 22.0437349,17.7902266 23.9868853,16.3626059 C24.6677532,15.8623764 25.2506133,15.3270968 25.7329095,14.7955866 C26.011948,14.4880748 26.1881947,14.2614718 26.2599307,14.1560639 C26.855248,13.281312 28.144752,13.281312 28.7400693,14.1560639 C28.8118053,14.2614718 28.988052,14.4880748 29.2670905,14.7955866 C29.7493867,15.3270968 30.3322468,15.8623764 31.0131147,16.3626059 C32.9562651,17.7902266 35.2773149,18.6428571 38,18.6428571 C38.8284271,18.6428571 39.5,19.31443 39.5,20.1428571 C39.5,20.6975424 39.3747323,21.6792319 39.0159152,23.0852094 C38.4409474,25.3381441 37.4167829,28.0135127 35.8360278,31.1105023 C34.2318752,34.2533319 32.4950923,36.6352056 30.7371698,38.3572522 C29.6366193,39.4353424 28.7390447,40.063383 28.1598012,40.3470941 Z M28.6378302,36.2141764 C30.1611577,34.7219373 31.7056248,32.603811 33.1639722,29.7466406 C34.6457171,26.8436302 35.5903026,24.3761416 36.1090848,22.3433621 C36.1811985,22.060794 36.242467,21.7963573 36.293839,21.5500318 C33.6091053,21.2535074 31.2522838,20.2609522 29.2368853,18.7802513 C28.5548875,18.2791917 27.9765141,17.775623 27.5,17.302417 C27.0234859,17.775623 26.4451125,18.2791917 25.7631147,18.7802513 C23.7477162,20.2609522 21.3908947,21.2535074 18.706161,21.5500318 C18.757533,21.7963573 18.8188015,22.060794 18.8909152,22.3433621 C19.4096974,24.3761416 20.3542829,26.8436302 21.8360278,29.7466406 C23.2943752,32.603811 24.8388423,34.7219373 26.3621698,36.2141764 C26.7724432,36.6160769 27.1538974,36.944847 27.5,37.207448 C27.8461026,36.944847 28.2275568,36.6160769 28.6378302,36.2141764 Z"></path>
</svg>