<?xml version="1.0" encoding="UTF-8"?>
<svg width="54px" height="54px" viewBox="0 0 54 54" version="1.1" xmlns="http://www.w3.org/2000/svg" xmlns:xlink="http://www.w3.org/1999/xlink">
<path fill="#ff785d" d="M27.5,28.5 C24.7395729,28.5 22.5,26.2604271 22.5,23.5 C22.5,20.7395729 24.7395729,18.5 27.5,18.5 C30.2604271,18.5 32.5,20.7395729 32.5,23.5 C32.5,26.2604271 30.2604271,28.5 27.5,28.5 Z M27.5,25.5 C28.6035729,25.5 29.5,24.6035729 29.5,23.5 C29.5,22.3964271 28.6035729,21.5 27.5,21.5 C26.3964271,21.5 25.5,22.3964271 25.5,23.5 C25.5,24.6035729 26.3964271,25.5 27.5,25.5 Z"></path>
<path fill="#ff785d" d="M36.5,23.2857143 C36.5,18.4417144 32.4761666,14.5 27.5,14.5 C22.5238334,14.5 18.5,18.4417144 18.5,23.2857143 C18.5,26.6633766 20.0460653,29.7412578 22.6434198,32.285605 C24.5083534,34.1124788 26.9101225,35.5 27.5,35.5 C28.0898775,35.5 30.4916466,34.1124788 32.3565802,32.285605 C34.9539347,29.7412578 36.5,26.6633766 36.5,23.2857143 Z M39.5,23.2857143 C39.5,27.5532132 37.5870809,31.3614208 34.4559198,34.4286807 C32.0825722,36.7535926 29.059579,38.5 27.5,38.5 C25.940421,38.5 22.9174278,36.7535926 20.5440802,34.4286807 C17.4129191,31.3614208 15.5,27.5532132 15.5,23.2857143 C15.5,16.770857 20.8806666,11.5 27.5,11.5 C34.1193334,11.5 39.5,16.770857 39.5,23.2857143 Z"></path>
</svg>