<?xml version="1.0" encoding="UTF-8"?>
<svg width="54px" height="54px" viewBox="0 0 54 54" version="1.1" xmlns="http://www.w3.org/2000/svg" xmlns:xlink="http://www.w3.org/1999/xlink">
<path fill="#ff785d" d="M25.5,19.5600235 L16.5,16.988595 L16.5,34.4399765 L25.5,37.011405 L25.5,19.5600235 Z M26.5879183,40.4422859 L14.5879183,37.0137145 C13.943966,36.8297281 13.5,36.2411491 13.5,35.5714286 L13.5,15 C13.5,14.0034317 14.4538574,13.2839357 15.4120817,13.5577141 L27.4120817,16.9862855 C28.056034,17.1702719 28.5,17.7588509 28.5,18.4285714 L28.5,39 C28.5,39.9965683 27.5461426,40.7160643 26.5879183,40.4422859 Z"></path>
<path fill="#ff785d" d="M37.5,34.4399765 L37.5,16.988595 L28.5,19.5600235 L28.5,37.011405 L37.5,34.4399765 Z M39.4120817,37.0137145 L27.4120817,40.4422859 C26.4538574,40.7160643 25.5,39.9965683 25.5,39 L25.5,18.4285714 C25.5,17.7588509 25.943966,17.1702719 26.5879183,16.9862855 L38.5879183,13.5577141 C39.5461426,13.2839357 40.5,14.0034317 40.5,15 L40.5,35.5714286 C40.5,36.2411491 40.056034,36.8297281 39.4120817,37.0137145 Z"></path>
</svg>