<?xml version="1.0" encoding="UTF-8"?>
<svg width="54px" height="54px" viewBox="0 0 54 54" version="1.1" xmlns="http://www.w3.org/2000/svg" xmlns:xlink="http://www.w3.org/1999/xlink">
<path fill="#ff785d" d="M37.2857143,37.4843546 C37.4046822,37.4843546 37.5,37.3890331 37.5,37.2711864 L37.5,23.5658409 C37.5,23.4479942 37.4046822,23.3526728 37.2857143,23.3526728 L16.7142857,23.3526728 C16.5953178,23.3526728 16.5,23.4479942 16.5,23.5658409 L16.5,37.2711864 C16.5,37.3890331 16.5953178,37.4843546 16.7142857,37.4843546 L37.2857143,37.4843546 Z M16.3835948,20.3694587 L33.30037,13.6071598 C34.2856214,13.2133161 35.3571429,13.9389471 35.3571429,15 L35.3571429,20.3526728 L37.2857143,20.3526728 C39.0615625,20.3526728 40.5,21.791166 40.5,23.5658409 L40.5,37.2711864 C40.5,39.0458614 39.0615625,40.4843546 37.2857143,40.4843546 L16.7142857,40.4843546 C14.9384375,40.4843546 13.5,39.0458614 13.5,37.2711864 L13.5,23.5658409 C13.5,21.9027476 14.7632422,20.5348905 16.3835948,20.3694587 Z M24.5078768,20.3526728 L32.3571429,20.3526728 L32.3571429,17.2150131 L24.5078768,20.3526728 Z M35.5714286,30.4185137 C35.5714286,29.4728449 34.8051429,28.7053455 33.8571429,28.7053455 C32.9091429,28.7053455 32.1428571,29.4728449 32.1428571,30.4185137 C32.1428571,31.3641825 32.9091429,32.1316819 33.8571429,32.1316819 C34.8051429,32.1316819 35.5714286,31.3641825 35.5714286,30.4185137 Z"></path>
</svg>