<?xml version="1.0" standalone="no"?>
<!DOCTYPE svg PUBLIC "-//W3C//DTD SVG 20010904//EN"
 "http://www.w3.org/TR/2001/REC-SVG-20010904/DTD/svg10.dtd">
<svg version="1.0" xmlns="http://www.w3.org/2000/svg"
 width="300.000000pt" height="60.000000pt" viewBox="0 0 300.000000 60.000000"
 preserveAspectRatio="xMidYMid meet">
<metadata>
Created by potrace 1.15, written by Peter Selinger 2001-2017
</metadata>
<g transform="translate(0.000000,60.000000) scale(0.100000,-0.100000)"
fill="#000000" stroke="none">
<path d="M1250 356 c0 -90 5 -177 11 -194 11 -32 59 -62 98 -62 17 0 21 6 21
34 0 30 -3 35 -27 38 l-28 3 -3 173 -2 172 -35 0 -35 0 0 -164z"/>
<path d="M1678 348 l-3 -173 -90 0 -90 0 -3 63 c-4 84 4 92 89 92 l69 0 0 30
0 30 -85 0 c-78 0 -88 -2 -110 -25 -23 -22 -25 -32 -25 -114 0 -81 2 -93 24
-118 23 -26 30 -28 116 -32 170 -6 180 8 180 249 l0 170 -35 0 -35 0 -2 -172z"/>
<path d="M166 359 c-23 -27 -26 -40 -26 -104 0 -134 25 -155 185 -155 l105 0
0 35 0 34 -107 3 -108 3 -3 69 c-2 49 1 72 10 77 7 5 57 9 111 9 l97 0 0 30 0
30 -119 0 -119 0 -26 -31z"/>
<path d="M524 375 c-34 -23 -47 -68 -42 -145 3 -60 8 -74 31 -98 26 -26 31
-27 132 -27 99 0 106 1 130 26 47 47 47 188 0 235 -22 22 -32 24 -127 24 -75
0 -109 -4 -124 -15z m205 -59 c7 -9 11 -40 9 -78 l-3 -63 -90 0 -90 0 -3 69
c-2 49 1 72 10 77 23 15 154 11 167 -5z"/>
<path d="M896 367 c-47 -47 -47 -194 0 -238 22 -21 37 -24 114 -27 145 -6 180
23 180 150 0 64 -18 111 -49 128 -11 5 -65 10 -121 10 -92 0 -103 -2 -124 -23z
m212 -46 c9 -5 12 -28 10 -77 l-3 -69 -90 0 -90 0 -3 63 c-2 38 2 69 9 78 13
16 144 20 167 5z"/>
<path d="M1845 366 c-46 -46 -46 -189 0 -236 22 -22 36 -25 111 -29 l85 -3 -3
33 -3 34 -75 5 -75 5 0 75 0 75 90 0 c89 0 90 0 90 -25 0 -24 -2 -25 -77 -28
l-78 -3 0 -34 0 -35 81 0 c76 0 82 2 110 29 39 39 41 100 4 136 -23 23 -31 25
-130 25 -98 0 -108 -2 -130 -24z"/>
<path d="M2200 370 c-28 -28 -27 -90 1 -116 16 -15 41 -20 107 -24 85 -5 87
-6 87 -30 0 -25 0 -25 -107 -28 l-108 -3 0 -35 0 -36 115 4 c110 3 116 4 142
31 38 37 37 97 -1 136 -24 23 -35 26 -112 30 -118 4 -108 25 14 29 l92 3 0 29
0 30 -105 0 c-92 0 -108 -3 -125 -20z"/>
<path d="M2546 367 c-47 -47 -47 -194 0 -238 23 -22 36 -24 140 -27 l114 -4 0
36 0 35 -107 3 -108 3 -3 63 c-2 38 2 69 9 78 8 10 37 14 110 14 l99 0 0 30 0
30 -115 0 c-108 0 -117 -2 -139 -23z"/>
</g>
</svg>
