<?xml version="1.0" standalone="no"?>
<!DOCTYPE svg PUBLIC "-//W3C//DTD SVG 20010904//EN"
 "http://www.w3.org/TR/2001/REC-SVG-20010904/DTD/svg10.dtd">
<svg version="1.0" xmlns="http://www.w3.org/2000/svg"
 width="200.000000pt" height="42.000000pt" viewBox="0 0 200.000000 42.000000"
 preserveAspectRatio="xMidYMid meet">

<g transform="translate(0.000000,42.000000) scale(0.100000,-0.100000)"
fill="#000000" stroke="none">
<path d="M140 371 c-55 -29 -85 -98 -85 -191 0 -57 5 -82 19 -103 22 -32 64
-57 98 -57 33 0 90 33 99 57 13 35 -11 46 -66 31 -43 -12 -48 -11 -61 7 -17
23 -17 97 -1 145 16 46 50 49 55 5 6 -45 37 -59 66 -29 31 31 10 120 -33 144
-28 15 -52 12 -91 -9z"/>
<path d="M808 363 c-53 -59 -49 -294 5 -327 36 -22 44 11 43 171 -2 172 -10
199 -48 156z"/>
<path d="M958 364 c-20 -9 -39 -23 -43 -32 -14 -37 -18 -218 -5 -256 12 -37
13 -38 52 -32 149 24 240 176 171 284 -17 28 -70 52 -110 51 -15 0 -45 -7 -65
-15z m96 -90 c26 -25 20 -72 -13 -105 -45 -45 -61 -39 -61 24 0 76 8 97 35 97
13 0 31 -7 39 -16z"/>
<path d="M1798 373 c6 -2 12 -16 12 -29 0 -13 5 -24 10 -24 6 0 10 11 10 24 0
13 6 27 13 29 6 3 -4 5 -23 5 -19 0 -29 -2 -22 -5z"/>
<path d="M1860 350 c0 -16 5 -30 10 -30 6 0 10 6 10 13 0 8 3 8 9 -2 8 -12 12
-12 24 -2 12 9 16 9 20 -1 3 -7 6 3 6 22 l1 35 -19 -24 -19 -24 -13 21 c-19
30 -29 27 -29 -8z"/>
<path d="M1465 315 c-61 -32 -71 -77 -30 -131 34 -44 32 -61 -10 -78 -64 -27
-35 -76 35 -61 41 9 90 60 90 93 0 15 -12 39 -30 57 -33 34 -32 60 0 70 31 10
44 33 30 50 -16 19 -47 19 -85 0z"/>
<path d="M1226 290 c-82 -73 -58 -228 39 -246 61 -11 149 56 116 89 -7 7 -22
5 -50 -8 -38 -17 -71 -16 -71 3 0 5 18 16 39 24 72 29 96 102 47 145 -38 32
-78 29 -120 -7z m84 -50 c0 -21 -44 -49 -56 -37 -10 10 24 57 41 57 8 0 15 -9
15 -20z"/>
<path d="M361 297 c-39 -19 -64 -71 -64 -132 0 -89 53 -146 120 -129 54 14 77
51 81 134 4 69 4 70 -31 105 -37 37 -65 43 -106 22z m59 -76 c16 -30 12 -97
-6 -112 -14 -11 -18 -10 -30 6 -24 33 -13 125 16 125 5 0 14 -9 20 -19z"/>
<path d="M585 288 c-51 -40 -69 -124 -42 -191 18 -41 37 -57 79 -63 101 -17
159 167 78 248 -35 34 -76 37 -115 6z m74 -80 c20 -58 -13 -139 -40 -97 -10
16 -12 90 -3 113 10 26 31 18 43 -16z"/>
<path d="M1640 293 c-35 -24 -47 -42 -61 -90 -16 -57 -4 -109 32 -146 26 -25
35 -29 66 -24 20 4 46 16 59 28 45 42 19 88 -31 55 -33 -22 -44 -20 -57 9 -9
19 -7 34 6 70 19 48 43 59 48 23 4 -30 43 -36 57 -9 21 39 -25 101 -74 101
-11 0 -32 -8 -45 -17z"/>
</g>
</svg>
